<?xml version="1.0" encoding="UTF-8"?>
<!--Generator: Apple Native CoreSVG 341-->
<!DOCTYPE svg
PUBLIC "-//W3C//DTD SVG 1.1//EN"
       "http://www.w3.org/Graphics/SVG/1.1/DTD/svg11.dtd">
<svg version="1.1" xmlns="http://www.w3.org/2000/svg" xmlns:xlink="http://www.w3.org/1999/xlink" viewBox="0 0 3300 2200">
 <!--glyph: "", point size: 100.0, font version: "20.0d10e1", template writer version: "138.0.0"-->
 <style>.monochrome-0 {-sfsymbols-motion-group:1;-sfsymbols-layer-tags:-6a9865844ac5c73d -7f74b4182ef781d4 play.circle.fill}
.monochrome-1 {opacity:0.0;-sfsymbols-clear-behind:true;-sfsymbols-motion-group:1;-sfsymbols-layer-tags:-6a9865844ac5c73d -7f74b4182ef781d4 play.circle.fill}
.monochrome-2 {opacity:0.0;-sfsymbols-clear-behind:true;-sfsymbols-motion-group:0;-sfsymbols-layer-tags:-6a9865844ac5c73d _badge waveform}
.monochrome-3 {-sfsymbols-variable-threshold:0.0;-sfsymbols-motion-group:0;-sfsymbols-always-pulses:true;-sfsymbols-layer-tags:-6a9865844ac5c73d _badge waveform}
.monochrome-4 {-sfsymbols-variable-threshold:0.21;-sfsymbols-motion-group:0;-sfsymbols-always-pulses:true;-sfsymbols-layer-tags:-6a9865844ac5c73d _badge waveform}
.monochrome-5 {-sfsymbols-variable-threshold:0.41;-sfsymbols-motion-group:0;-sfsymbols-always-pulses:true;-sfsymbols-layer-tags:-6a9865844ac5c73d _badge waveform}
.monochrome-6 {-sfsymbols-variable-threshold:0.61;-sfsymbols-motion-group:0;-sfsymbols-always-pulses:true;-sfsymbols-layer-tags:-6a9865844ac5c73d _badge waveform}
.monochrome-7 {-sfsymbols-variable-threshold:0.81;-sfsymbols-motion-group:0;-sfsymbols-always-pulses:true;-sfsymbols-layer-tags:-6a9865844ac5c73d _badge waveform}

.multicolor-0:tintColor {-sfsymbols-motion-group:1;-sfsymbols-layer-tags:-6a9865844ac5c73d -7f74b4182ef781d4 play.circle.fill}
.multicolor-1:tintColor {opacity:0.0;-sfsymbols-clear-behind:true;-sfsymbols-motion-group:1;-sfsymbols-layer-tags:-6a9865844ac5c73d -7f74b4182ef781d4 play.circle.fill}
.multicolor-2:tintColor {opacity:0.0;-sfsymbols-clear-behind:true;-sfsymbols-motion-group:0;-sfsymbols-layer-tags:-6a9865844ac5c73d _badge waveform}
.multicolor-3:tintColor {-sfsymbols-variable-threshold:0.0;-sfsymbols-motion-group:0;-sfsymbols-always-pulses:true;-sfsymbols-layer-tags:-6a9865844ac5c73d _badge waveform}
.multicolor-4:tintColor {-sfsymbols-variable-threshold:0.21;-sfsymbols-motion-group:0;-sfsymbols-always-pulses:true;-sfsymbols-layer-tags:-6a9865844ac5c73d _badge waveform}
.multicolor-5:tintColor {-sfsymbols-variable-threshold:0.41;-sfsymbols-motion-group:0;-sfsymbols-always-pulses:true;-sfsymbols-layer-tags:-6a9865844ac5c73d _badge waveform}
.multicolor-6:tintColor {-sfsymbols-variable-threshold:0.61;-sfsymbols-motion-group:0;-sfsymbols-always-pulses:true;-sfsymbols-layer-tags:-6a9865844ac5c73d _badge waveform}
.multicolor-7:tintColor {-sfsymbols-variable-threshold:0.81;-sfsymbols-motion-group:0;-sfsymbols-always-pulses:true;-sfsymbols-layer-tags:-6a9865844ac5c73d _badge waveform}

.hierarchical-0:secondary {-sfsymbols-motion-group:1;-sfsymbols-layer-tags:-6a9865844ac5c73d -7f74b4182ef781d4 play.circle.fill}
.hierarchical-1:primary {opacity:0.0;-sfsymbols-clear-behind:true;-sfsymbols-motion-group:1;-sfsymbols-layer-tags:-6a9865844ac5c73d -7f74b4182ef781d4 play.circle.fill}
.hierarchical-2:primary {opacity:0.0;-sfsymbols-clear-behind:true;-sfsymbols-motion-group:0;-sfsymbols-layer-tags:-6a9865844ac5c73d _badge waveform}
.hierarchical-3:primary {-sfsymbols-variable-threshold:0.0;-sfsymbols-motion-group:0;-sfsymbols-layer-tags:-6a9865844ac5c73d _badge waveform}
.hierarchical-4:primary {-sfsymbols-variable-threshold:0.21;-sfsymbols-motion-group:0;-sfsymbols-layer-tags:-6a9865844ac5c73d _badge waveform}
.hierarchical-5:primary {-sfsymbols-variable-threshold:0.41;-sfsymbols-motion-group:0;-sfsymbols-layer-tags:-6a9865844ac5c73d _badge waveform}
.hierarchical-6:primary {-sfsymbols-variable-threshold:0.61;-sfsymbols-motion-group:0;-sfsymbols-layer-tags:-6a9865844ac5c73d _badge waveform}
.hierarchical-7:primary {-sfsymbols-variable-threshold:0.81;-sfsymbols-motion-group:0;-sfsymbols-layer-tags:-6a9865844ac5c73d _badge waveform}

.SFSymbolsPreviewWireframe {fill:none;opacity:1.0;stroke:black;stroke-width:0.5}
</style>
 <g id="Notes">
  <rect height="2200" id="artboard" style="fill:white;opacity:1" width="3300" x="0" y="0"/>
  <line style="fill:none;stroke:black;opacity:1;stroke-width:0.5;" x1="263" x2="3036" y1="292" y2="292"/>
  <text style="stroke:none;fill:black;font-family:sans-serif;font-size:13;font-weight:bold;" transform="matrix(1 0 0 1 263 322)">Weight/Scale Variations</text>
  <text style="stroke:none;fill:black;font-family:sans-serif;font-size:13;text-anchor:middle;" transform="matrix(1 0 0 1 559.711 322)">Ultralight</text>
  <text style="stroke:none;fill:black;font-family:sans-serif;font-size:13;text-anchor:middle;" transform="matrix(1 0 0 1 856.422 322)">Thin</text>
  <text style="stroke:none;fill:black;font-family:sans-serif;font-size:13;text-anchor:middle;" transform="matrix(1 0 0 1 1153.13 322)">Light</text>
  <text style="stroke:none;fill:black;font-family:sans-serif;font-size:13;text-anchor:middle;" transform="matrix(1 0 0 1 1449.84 322)">Regular</text>
  <text style="stroke:none;fill:black;font-family:sans-serif;font-size:13;text-anchor:middle;" transform="matrix(1 0 0 1 1746.56 322)">Medium</text>
  <text style="stroke:none;fill:black;font-family:sans-serif;font-size:13;text-anchor:middle;" transform="matrix(1 0 0 1 2043.27 322)">Semibold</text>
  <text style="stroke:none;fill:black;font-family:sans-serif;font-size:13;text-anchor:middle;" transform="matrix(1 0 0 1 2339.98 322)">Bold</text>
  <text style="stroke:none;fill:black;font-family:sans-serif;font-size:13;text-anchor:middle;" transform="matrix(1 0 0 1 2636.69 322)">Heavy</text>
  <text style="stroke:none;fill:black;font-family:sans-serif;font-size:13;text-anchor:middle;" transform="matrix(1 0 0 1 2933.4 322)">Black</text>
  <line style="fill:none;stroke:black;opacity:1;stroke-width:0.5;" x1="263" x2="3036" y1="1903" y2="1903"/>
  <g transform="matrix(0.2 0 0 0.2 263 1933)">
   <path d="m46.2402 4.15039c21.7773 0 39.4531-17.627 39.4531-39.4043s-17.6758-39.4043-39.4531-39.4043c-21.7285 0-39.4043 17.627-39.4043 39.4043s17.6758 39.4043 39.4043 39.4043Zm0-7.42188c-17.6758 0-31.9336-14.3066-31.9336-31.9824s14.2578-31.9824 31.9336-31.9824 31.9824 14.3066 31.9824 31.9824-14.3066 31.9824-31.9824 31.9824Zm-17.9688-31.9824c0 2.14844 1.51367 3.61328 3.75977 3.61328h10.498v10.5957c0 2.19727 1.46484 3.71094 3.61328 3.71094 2.24609 0 3.71094-1.51367 3.71094-3.71094v-10.5957h10.5957c2.19727 0 3.71094-1.46484 3.71094-3.61328 0-2.19727-1.51367-3.71094-3.71094-3.71094h-10.5957v-10.5469c0-2.24609-1.46484-3.75977-3.71094-3.75977-2.14844 0-3.61328 1.51367-3.61328 3.75977v10.5469h-10.498c-2.24609 0-3.75977 1.51367-3.75977 3.71094Z"/>
  </g>
  <g transform="matrix(0.2 0 0 0.2 281.506 1933)">
   <path d="m58.5449 14.5508c27.4902 0 49.8047-22.3145 49.8047-49.8047s-22.3145-49.8047-49.8047-49.8047-49.8047 22.3145-49.8047 49.8047 22.3145 49.8047 49.8047 49.8047Zm0-8.30078c-22.9492 0-41.5039-18.5547-41.5039-41.5039s18.5547-41.5039 41.5039-41.5039 41.5039 18.5547 41.5039 41.5039-18.5547 41.5039-41.5039 41.5039Zm-22.6562-41.5039c0 2.39258 1.66016 4.00391 4.15039 4.00391h14.3555v14.4043c0 2.44141 1.66016 4.15039 4.05273 4.15039 2.44141 0 4.15039-1.66016 4.15039-4.15039v-14.4043h14.4043c2.44141 0 4.15039-1.61133 4.15039-4.00391 0-2.44141-1.70898-4.15039-4.15039-4.15039h-14.4043v-14.3555c0-2.49023-1.70898-4.19922-4.15039-4.19922-2.39258 0-4.05273 1.70898-4.05273 4.19922v14.3555h-14.3555c-2.49023 0-4.15039 1.70898-4.15039 4.15039Z"/>
  </g>
  <g transform="matrix(0.2 0 0 0.2 304.924 1933)">
   <path d="m74.8535 28.3203c35.1074 0 63.623-28.4668 63.623-63.5742s-28.5156-63.623-63.623-63.623-63.5742 28.5156-63.5742 63.623 28.4668 63.5742 63.5742 63.5742Zm0-9.08203c-30.127 0-54.4922-24.3652-54.4922-54.4922s24.3652-54.4922 54.4922-54.4922 54.4922 24.3652 54.4922 54.4922-24.3652 54.4922-54.4922 54.4922Zm-28.8574-54.4922c0 2.58789 1.85547 4.39453 4.58984 4.39453h19.7266v19.7754c0 2.68555 1.85547 4.58984 4.44336 4.58984 2.68555 0 4.54102-1.85547 4.54102-4.58984v-19.7754h19.7754c2.68555 0 4.58984-1.80664 4.58984-4.39453 0-2.73438-1.85547-4.58984-4.58984-4.58984h-19.7754v-19.7266c0-2.73438-1.85547-4.63867-4.54102-4.63867-2.58789 0-4.44336 1.9043-4.44336 4.63867v19.7266h-19.7266c-2.73438 0-4.58984 1.85547-4.58984 4.58984Z"/>
  </g>
  <text style="stroke:none;fill:black;font-family:sans-serif;font-size:13;font-weight:bold;" transform="matrix(1 0 0 1 263 1953)">Design Variations</text>
  <text style="stroke:none;fill:black;font-family:sans-serif;font-size:13;" transform="matrix(1 0 0 1 263 1971)">Symbols are supported in up to nine weights and three scales.</text>
  <text style="stroke:none;fill:black;font-family:sans-serif;font-size:13;" transform="matrix(1 0 0 1 263 1989)">For optimal layout with text and other symbols, vertically align</text>
  <text style="stroke:none;fill:black;font-family:sans-serif;font-size:13;" transform="matrix(1 0 0 1 263 2007)">symbols with the adjacent text.</text>
  <line style="fill:none;stroke:#00AEEF;stroke-width:0.5;opacity:1.0;" x1="776" x2="776" y1="1919" y2="1933"/>
  <g transform="matrix(0.2 0 0 0.2 776 1933)">
   <path d="m16.5527 0.78125c2.58789 0 3.85742-0.976562 4.78516-3.71094l6.29883-17.2363h28.8086l6.29883 17.2363c0.927734 2.73438 2.19727 3.71094 4.73633 3.71094 2.58789 0 4.24805-1.5625 4.24805-4.00391 0-0.830078-0.146484-1.61133-0.537109-2.63672l-22.9004-60.9863c-1.12305-2.97852-3.125-4.49219-6.25-4.49219-3.02734 0-5.07812 1.46484-6.15234 4.44336l-22.9004 61.084c-0.390625 1.02539-0.537109 1.80664-0.537109 2.63672 0 2.44141 1.5625 3.95508 4.10156 3.95508Zm13.4766-28.3691 11.8652-32.8613h0.244141l11.8652 32.8613Z"/>
  </g>
  <line style="fill:none;stroke:#00AEEF;stroke-width:0.5;opacity:1.0;" x1="792.836" x2="792.836" y1="1919" y2="1933"/>
  <text style="stroke:none;fill:black;font-family:sans-serif;font-size:13;font-weight:bold;" transform="matrix(1 0 0 1 776 1953)">Margins</text>
  <text style="stroke:none;fill:black;font-family:sans-serif;font-size:13;" transform="matrix(1 0 0 1 776 1971)">Leading and trailing margins on the left and right side of each symbol</text>
  <text style="stroke:none;fill:black;font-family:sans-serif;font-size:13;" transform="matrix(1 0 0 1 776 1989)">can be adjusted by modifying the x-location of the margin guidelines.</text>
  <text style="stroke:none;fill:black;font-family:sans-serif;font-size:13;" transform="matrix(1 0 0 1 776 2007)">Modifications are automatically applied proportionally to all</text>
  <text style="stroke:none;fill:black;font-family:sans-serif;font-size:13;" transform="matrix(1 0 0 1 776 2025)">scales and weights.</text>
  <g transform="matrix(0.2 0 0 0.2 1289 1933)">
   <path d="m14.209 9.32617 8.49609 8.54492c4.29688 4.3457 9.22852 4.05273 13.8672-1.07422l53.4668-58.9355-4.83398-4.88281-53.0762 58.3984c-1.75781 2.00195-3.41797 2.49023-5.76172 0.146484l-5.85938-5.81055c-2.34375-2.29492-1.80664-4.00391 0.195312-5.81055l57.373-54.0039-4.88281-4.83398-57.959 54.4434c-4.93164 4.58984-5.32227 9.47266-1.02539 13.8184Zm32.0801-90.9668c-2.09961 2.05078-2.24609 4.93164-1.07422 6.88477 1.17188 1.80664 3.4668 2.97852 6.68945 2.14844 7.32422-1.70898 14.9414-2.00195 22.0703 2.68555l-2.92969 7.27539c-1.70898 4.15039-0.830078 7.08008 1.85547 9.81445l11.4746 11.5723c2.44141 2.44141 4.49219 2.53906 7.32422 2.05078l5.32227-0.976562 3.32031 3.36914-0.195312 2.7832c-0.195312 2.49023 0.439453 4.39453 2.88086 6.78711l3.80859 3.71094c2.39258 2.39258 5.46875 2.53906 7.8125 0.195312l14.5508-14.5996c2.34375-2.34375 2.24609-5.32227-0.146484-7.71484l-3.85742-3.80859c-2.39258-2.39258-4.24805-3.17383-6.64062-2.97852l-2.88086 0.244141-3.22266-3.17383 1.2207-5.61523c0.634766-2.83203-0.146484-5.0293-3.07617-7.95898l-10.9863-10.9375c-16.6992-16.6016-38.8672-16.2109-53.3203-1.75781Zm7.4707 1.85547c12.1582-8.88672 28.6133-7.37305 39.7461 3.75977l12.1582 12.0605c1.17188 1.17188 1.36719 2.09961 1.02539 3.80859l-1.61133 7.42188 7.51953 7.42188 4.93164-0.292969c1.26953-0.0488281 1.66016 0.0488281 2.63672 1.02539l2.88086 2.88086-12.207 12.207-2.88086-2.88086c-0.976562-0.976562-1.12305-1.36719-1.07422-2.68555l0.341797-4.88281-7.4707-7.42188-7.61719 1.26953c-1.61133 0.341797-2.34375 0.195312-3.56445-0.976562l-10.0098-10.0098c-1.26953-1.17188-1.41602-2.00195-0.634766-3.85742l4.39453-10.4492c-7.8125-7.27539-17.9688-10.4004-28.125-7.42188-0.78125 0.195312-1.07422-0.439453-0.439453-0.976562Z"/>
  </g>
  <text style="stroke:none;fill:black;font-family:sans-serif;font-size:13;font-weight:bold;" transform="matrix(1 0 0 1 1289 1953)">Exporting</text>
  <text style="stroke:none;fill:black;font-family:sans-serif;font-size:13;" transform="matrix(1 0 0 1 1289 1971)">Symbols should be outlined when exporting to ensure the</text>
  <text style="stroke:none;fill:black;font-family:sans-serif;font-size:13;" transform="matrix(1 0 0 1 1289 1989)">design is preserved when submitting to Xcode.</text>
  <text id="template-version" style="stroke:none;fill:black;font-family:sans-serif;font-size:13;text-anchor:end;" transform="matrix(1 0 0 1 3036 1933)">Template v.6.0</text>
  <text style="stroke:none;fill:black;font-family:sans-serif;font-size:13;text-anchor:end;" transform="matrix(1 0 0 1 3036 1951)">Requires Xcode 16 or greater</text>
  <text id="descriptive-name" style="stroke:none;fill:black;font-family:sans-serif;font-size:13;text-anchor:end;" transform="matrix(1 0 0 1 3036 1969)">Generated from </text>
  <text style="stroke:none;fill:black;font-family:sans-serif;font-size:13;text-anchor:end;" transform="matrix(1 0 0 1 3036 1987)">Typeset at 100.0 points</text>
  <text style="stroke:none;fill:black;font-family:sans-serif;font-size:13;" transform="matrix(1 0 0 1 263 726)">Small</text>
  <text style="stroke:none;fill:black;font-family:sans-serif;font-size:13;" transform="matrix(1 0 0 1 263 1156)">Medium</text>
  <text style="stroke:none;fill:black;font-family:sans-serif;font-size:13;" transform="matrix(1 0 0 1 263 1586)">Large</text>
 </g>
 <g id="Guides">
  <g id="H-reference" style="fill:#27AAE1;stroke:none;" transform="matrix(1 0 0 1 339 696)">
   <path d="M0.993654 0L3.63775 0L29.3281-67.1323L30.0303-67.1323L30.0303-70.459L28.1226-70.459ZM11.6885-24.4799L46.9815-24.4799L46.2315-26.7285L12.4385-26.7285ZM55.1196 0L57.7637 0L30.6382-70.459L29.4326-70.459L29.4326-67.1323Z"/>
  </g>
  <line id="Baseline-S" style="fill:none;stroke:#27AAE1;opacity:1;stroke-width:0.5;" x1="263" x2="3036" y1="696" y2="696"/>
  <line id="Capline-S" style="fill:none;stroke:#27AAE1;opacity:1;stroke-width:0.5;" x1="263" x2="3036" y1="625.541" y2="625.541"/>
  <g id="H-reference" style="fill:#27AAE1;stroke:none;" transform="matrix(1 0 0 1 339 1126)">
   <path d="M0.993654 0L3.63775 0L29.3281-67.1323L30.0303-67.1323L30.0303-70.459L28.1226-70.459ZM11.6885-24.4799L46.9815-24.4799L46.2315-26.7285L12.4385-26.7285ZM55.1196 0L57.7637 0L30.6382-70.459L29.4326-70.459L29.4326-67.1323Z"/>
  </g>
  <line id="Baseline-M" style="fill:none;stroke:#27AAE1;opacity:1;stroke-width:0.5;" x1="263" x2="3036" y1="1126" y2="1126"/>
  <line id="Capline-M" style="fill:none;stroke:#27AAE1;opacity:1;stroke-width:0.5;" x1="263" x2="3036" y1="1055.54" y2="1055.54"/>
  <g id="H-reference" style="fill:#27AAE1;stroke:none;" transform="matrix(1 0 0 1 339 1556)">
   <path d="M0.993654 0L3.63775 0L29.3281-67.1323L30.0303-67.1323L30.0303-70.459L28.1226-70.459ZM11.6885-24.4799L46.9815-24.4799L46.2315-26.7285L12.4385-26.7285ZM55.1196 0L57.7637 0L30.6382-70.459L29.4326-70.459L29.4326-67.1323Z"/>
  </g>
  <line id="Baseline-L" style="fill:none;stroke:#27AAE1;opacity:1;stroke-width:0.5;" x1="263" x2="3036" y1="1556" y2="1556"/>
  <line id="Capline-L" style="fill:none;stroke:#27AAE1;opacity:1;stroke-width:0.5;" x1="263" x2="3036" y1="1485.54" y2="1485.54"/>
  <line id="right-margin-Black-S" style="fill:none;stroke:#FF3B30;stroke-width:0.5;opacity:1.0;" x1="2982.23" x2="2982.23" y1="600.785" y2="720.121"/>
  <line id="left-margin-Black-S" style="fill:none;stroke:#00AEEF;stroke-width:0.5;opacity:1.0;" x1="2884.57" x2="2884.57" y1="600.785" y2="720.121"/>
  <line id="right-margin-Regular-S" style="fill:none;stroke:#FF3B30;stroke-width:0.5;opacity:1.0;" x1="1496.11" x2="1496.11" y1="600.785" y2="720.121"/>
  <line id="left-margin-Regular-S" style="fill:none;stroke:#00AEEF;stroke-width:0.5;opacity:1.0;" x1="1403.58" x2="1403.58" y1="600.785" y2="720.121"/>
  <line id="right-margin-Ultralight-S" style="fill:none;stroke:#FF3B30;stroke-width:0.5;opacity:1.0;" x1="603.773" x2="603.773" y1="600.785" y2="720.121"/>
  <line id="left-margin-Ultralight-S" style="fill:none;stroke:#00AEEF;stroke-width:0.5;opacity:1.0;" x1="515.649" x2="515.649" y1="600.785" y2="720.121"/>
 </g>
 <g id="Symbols">
  <g id="Black-S" transform="matrix(1 0 0 1 2884.57 696)">
   <path class="monochrome-0 multicolor-0:tintColor hierarchical-0:secondary SFSymbolsPreviewWireframe" d="M48.8281 6.73828C72.0215 6.73828 90.8203-12.0605 90.8203-35.2539C90.8203-58.4473 72.0215-77.2461 48.8281-77.2461C25.6348-77.2461 6.83594-58.4473 6.83594-35.2539C6.83594-12.0605 25.6348 6.73828 48.8281 6.73828Z"/>
   <path class="monochrome-1 multicolor-1:tintColor hierarchical-1:primary SFSymbolsPreviewWireframe" d="M43.7012-18.8477C39.9414-16.6016 35.5469-18.6035 35.5469-23.1934L35.5469-47.4609C35.5469-52.002 39.8438-54.0527 43.7012-51.7578L63.7695-39.9414C67.334-37.8418 67.3828-32.8125 63.7695-30.6641Z"/>
   <path class="monochrome-2 multicolor-2:tintColor hierarchical-2:primary SFSymbolsPreviewWireframe" d="M59.2809-1.3574C59.2809 3.623 63.3336 7.6758 68.3141 7.6758C68.9 7.6758 69.4371 7.6269 70.0231 7.5293L70.1207 7.6758C71.8785 10.3125 74.6129 12.5098 78.0797 12.5098C78.4215 12.5098 78.7633 12.5098 79.1051 12.4609L79.1539 12.7051C79.984 16.7578 83.6949 19.6875 87.943 19.6875C91.6051 19.6875 94.7301 17.4902 96.1949 14.3652C96.6832 14.4629 97.1715 14.5117 97.7086 14.5117C102.543 14.5117 106.742 10.7031 106.742 5.918L106.742 5.625C106.986 5.6738 107.23 5.6738 107.474 5.6738C112.455 5.6738 116.507 1.6211 116.507-3.3594L116.507-10.7813C116.507-15.7617 112.455-19.8145 107.474-19.8145C107.23-19.8145 106.986-19.8145 106.742-19.7656L106.742-19.9609C106.742-24.7949 102.591-28.6524 97.7086-28.6524C97.1715-28.6524 96.6344-28.6035 96.1461-28.5059C94.7301-31.6309 91.5563-33.7793 87.943-33.7793C83.7438-33.7793 80.0817-30.9473 79.2028-27.041L79.1051-26.6016C78.7633-26.6504 78.4215-26.6504 78.0797-26.6504C74.7594-26.6504 71.7809-24.8926 70.316-22.207L70.0231-21.6699C69.4371-21.7676 68.9-21.8164 68.3141-21.8164C63.3336-21.8164 59.2809-17.7637 59.2809-12.7832L59.2809-1.3574Z"/>
   <path class="monochrome-3 multicolor-3:tintColor hierarchical-3:primary SFSymbolsPreviewWireframe" d="M68.2653 1.3281C69.7301 1.3281 70.9508 0.107402 70.9508-1.3574L70.9508-12.7832C70.9508-14.2481 69.7301-15.4688 68.2653-15.4688C66.8004-15.4688 65.5797-14.2481 65.5797-12.7832L65.5797-1.3574C65.5797 0.107402 66.8004 1.3281 68.2653 1.3281Z"/>
   <path class="monochrome-4 multicolor-4:tintColor hierarchical-4:primary SFSymbolsPreviewWireframe" d="M78.0309 6.1621C79.4957 6.1621 80.7164 4.9414 80.7164 3.4766L80.7164-17.6172C80.7164-19.082 79.4957-20.3027 78.0309-20.3027C76.566-20.3027 75.3453-19.082 75.3453-17.6172L75.3453 3.4766C75.3453 4.9414 76.566 6.1621 78.0309 6.1621Z"/>
   <path class="monochrome-5 multicolor-5:tintColor hierarchical-5:primary SFSymbolsPreviewWireframe" d="M87.8942 13.3398C89.359 13.3398 90.5797 12.1191 90.5797 10.6543L90.5797-24.7461C90.5797-26.2109 89.359-27.4316 87.8942-27.4316C86.4293-27.4316 85.2086-26.2109 85.2086-24.7461L85.2086 10.6543C85.2086 12.1191 86.4293 13.3398 87.8942 13.3398Z"/>
   <path class="monochrome-6 multicolor-6:tintColor hierarchical-6:primary SFSymbolsPreviewWireframe" d="M97.6598 8.1641C99.1246 8.1641 100.345 6.9434 100.345 5.4785L100.345-19.6192C100.345-21.084 99.1246-22.3047 97.6598-22.3047C96.1949-22.3047 94.9742-21.084 94.9742-19.6192L94.9742 5.4785C94.9742 6.9434 96.1949 8.1641 97.6598 8.1641Z"/>
   <path class="monochrome-7 multicolor-7:tintColor hierarchical-7:primary SFSymbolsPreviewWireframe" d="M107.425-0.673798C108.89-0.673798 110.111-1.8945 110.111-3.3594L110.111-10.7813C110.111-12.2461 108.89-13.4668 107.425-13.4668C105.961-13.4668 104.74-12.2461 104.74-10.7813L104.74-3.3594C104.74-1.8945 105.961-0.673798 107.425-0.673798Z"/>
  </g>
  <g id="Regular-S" transform="matrix(1 0 0 1 1403.58 696)">
   <path class="monochrome-0 multicolor-0:tintColor hierarchical-0:secondary SFSymbolsPreviewWireframe" d="M46.2402 4.15039C68.0176 4.15039 85.6934-13.5254 85.6934-35.2539C85.6934-56.9824 68.0176-74.6582 46.2402-74.6582C24.5117-74.6582 6.83594-56.9824 6.83594-35.2539C6.83594-13.5254 24.5117 4.15039 46.2402 4.15039Z"/>
   <path class="monochrome-1 multicolor-1:tintColor hierarchical-1:primary SFSymbolsPreviewWireframe" d="M39.0137-19.7754C37.0605-18.5547 34.8145-19.5312 34.8145-21.5332L34.8145-48.9258C34.8145-50.9277 37.2559-51.7578 39.0137-50.6836L61.5723-37.4512C63.2812-36.4258 63.3301-33.9844 61.5723-33.0078Z"/>
   <path class="monochrome-2 multicolor-2:tintColor hierarchical-2:primary SFSymbolsPreviewWireframe" d="M55.8112-4.5801C55.8112 0.351502 59.8639 4.4043 64.7955 4.4043C64.9909 4.4043 65.1862 4.4043 65.3815 4.3554L65.4303 4.5996C66.651 8.3105 70.0202 10.9472 74.0729 10.9472C74.2194 10.9472 74.4147 10.8984 74.5612 10.8984L74.61 11.1426C75.7819 14.8047 79.1022 17.5879 83.2526 17.5879C86.3776 17.5879 89.0631 16.0254 90.6745 13.6816C91.2604 13.8281 91.7975 13.8769 92.4323 13.8769C96.8268 13.8769 100.538 10.8008 101.319 6.6504L101.368 6.3574C101.466 6.3574 101.563 6.4062 101.661 6.4062C106.739 6.4062 110.743 2.4023 110.743-2.6758L110.743-11.5137C110.743-16.4942 106.739-20.5469 101.661-20.5469C101.563-20.5469 101.466-20.5469 101.368-20.4981L101.319-20.8399C100.538-24.8926 96.8268-27.9688 92.4323-27.9688C91.7975-27.9688 91.2604-27.9199 90.6745-27.8223C89.0631-30.1172 86.3776-31.6797 83.2526-31.6797C79.1998-31.6797 75.8307-28.9453 74.61-25.2344L74.61-24.9903C74.4147-25.0391 74.2682-25.0391 74.0729-25.0391C70.069-25.0391 66.358-22.5489 65.4791-18.8379L65.4303-18.5449C65.235-18.5449 64.9909-18.5938 64.7955-18.5938C59.8639-18.5938 55.8112-14.541 55.8112-9.5117L55.8112-4.5801Z"/>
   <path class="monochrome-3 multicolor-3:tintColor hierarchical-3:primary SFSymbolsPreviewWireframe" d="M64.7955-2.2852C66.2116-2.2852 67.237-3.3106 67.237-4.5801L67.237-9.5117C67.237-10.8301 66.2116-11.9043 64.7955-11.9043C63.526-11.9043 62.5006-10.8301 62.5006-9.5117L62.5006-4.5801C62.5006-3.3106 63.526-2.2852 64.7955-2.2852Z"/>
   <path class="monochrome-4 multicolor-4:tintColor hierarchical-4:primary SFSymbolsPreviewWireframe" d="M74.0729 4.2578C75.3912 4.2578 76.4166 3.2324 76.4166 1.8164L76.4166-16.0059C76.4166-17.3242 75.3912-18.3496 74.0729-18.3496C72.7545-18.3496 71.6803-17.3242 71.6803-16.0059L71.6803 1.8164C71.6803 3.2324 72.7545 4.2578 74.0729 4.2578Z"/>
   <path class="monochrome-5 multicolor-5:tintColor hierarchical-5:primary SFSymbolsPreviewWireframe" d="M83.2526 10.8984C84.6198 10.8984 85.6452 9.873 85.6452 8.5058L85.6452-22.5977C85.6452-23.9649 84.6198-24.9903 83.2526-24.9903C81.9342-24.9903 80.9088-23.9649 80.9088-22.5977L80.9088 8.5058C80.9088 9.9219 81.8854 10.8984 83.2526 10.8984Z"/>
   <path class="monochrome-6 multicolor-6:tintColor hierarchical-6:primary SFSymbolsPreviewWireframe" d="M92.4323 7.1875C93.7995 7.1875 94.8248 6.1621 94.8248 4.7949L94.8248-18.9844C94.8248-20.2539 93.7995-21.2793 92.4323-21.2793C91.1627-21.2793 90.0885-20.2539 90.0885-18.9844L90.0885 4.7949C90.0885 6.1621 91.1627 7.1875 92.4323 7.1875Z"/>
   <path class="monochrome-7 multicolor-7:tintColor hierarchical-7:primary SFSymbolsPreviewWireframe" d="M101.661-0.283198C103.028-0.283198 104.053-1.3086 104.053-2.6758L104.053-11.5137C104.053-12.8321 103.028-13.8574 101.661-13.8574C100.342-13.8574 99.317-12.7832 99.317-11.5137L99.317-2.6758C99.317-1.3574 100.342-0.283198 101.661-0.283198Z"/>
  </g>
  <g id="Ultralight-S" transform="matrix(1 0 0 1 515.649 696)">
   <path class="monochrome-0 multicolor-0:tintColor hierarchical-0:secondary SFSymbolsPreviewWireframe" d="M44.0606 1.97072C64.521 1.97072 81.2886-14.7969 81.2886-35.2539C81.2886-55.7109 64.521-72.4785 44.0606-72.4785C23.6035-72.4785 6.83594-55.7109 6.83594-35.2539C6.83594-14.7969 23.6035 1.97072 44.0606 1.97072Z"/>
   <path class="monochrome-1 multicolor-1:tintColor hierarchical-1:primary SFSymbolsPreviewWireframe" d="M36.607-20.1841C35.335-19.4175 33.8608-20.0762 33.8608-21.397L33.8608-49.0166C33.8608-50.3374 35.3486-50.9858 36.607-50.2295L58.6206-36.77C59.8755-35.9717 59.8789-34.3022 58.6206-33.5073Z"/>
   <path class="monochrome-2 multicolor-2:tintColor hierarchical-2:primary SFSymbolsPreviewWireframe" d="M58.2259-2.46855C58.2259 0.419652 60.5531 2.74685 63.4412 2.74685C64.4994 2.74685 65.3758 2.42895 66.1615 1.92605L66.1649 3.75955C66.2503 6.56225 68.5297 8.83565 71.4017 8.83565C72.4109 8.83565 73.3329 8.51445 74.1151 8.01485L74.1185 9.62135C74.155 12.4661 76.4764 14.7498 79.3099 14.7498C82.117 14.7498 84.3939 12.5062 84.4612 10.2078C85.2743 10.7176 86.1747 11.0389 87.2636 11.0389C90.1142 11.0389 92.4174 8.73465 92.472 5.90115L92.4755 4.15505C93.2542 4.65455 94.1239 4.97585 95.1752 4.97585C98.0737 4.97585 100.397 2.65205 100.397-0.246348L100.397-13.8977C100.397-16.7893 98.0737-19.1164 95.1752-19.1164C94.1239-19.1164 93.2542-18.7986 92.4755-18.2956L92.472-19.9997C92.4174-22.8718 90.1142-25.176 87.2636-25.176C86.1747-25.176 85.2743-24.8093 84.4612-24.303C84.3939-26.5979 82.117-28.8415 79.3099-28.8415C76.4833-28.8415 74.1586-26.5613 74.1185-23.7131L74.1185-22.1975C73.3329-22.7004 72.4144-23.0183 71.4017-23.0183C68.5331-23.0183 66.2297-20.7551 66.1683-17.907L66.1649-16.0701C65.3792-16.5696 64.4994-16.8909 63.4412-16.8909C60.5531-16.8909 58.2259-14.5637 58.2259-11.6687L58.2259-2.46855Z"/>
   <path class="monochrome-3 multicolor-3:tintColor hierarchical-3:primary SFSymbolsPreviewWireframe" d="M63.4412-1.26345C64.1306-1.26345 64.6566-1.78935 64.6566-2.46855L64.6566-11.6687C64.6566-12.3513 64.1306-12.8352 63.4412-12.8352C62.8075-12.8352 62.2816-12.3513 62.2816-11.6687L62.2816-2.46855C62.2816-1.78935 62.8075-1.26345 63.4412-1.26345Z"/>
   <path class="monochrome-4 multicolor-4:tintColor hierarchical-4:primary SFSymbolsPreviewWireframe" d="M71.4017 4.78005C72.0389 4.78005 72.5648 4.29955 72.5648 3.61005L72.5648-17.7995C72.5648-18.3913 72.0389-18.9626 71.4017-18.9626C70.7191-18.9626 70.1898-18.3913 70.1898-17.7995L70.1898 3.61005C70.1898 4.29955 70.7191 4.78005 71.4017 4.78005Z"/>
   <path class="monochrome-5 multicolor-5:tintColor hierarchical-5:primary SFSymbolsPreviewWireframe" d="M79.3099 10.6941C79.996 10.6941 80.5219 10.1682 80.5219 9.52755L80.5219-23.5739C80.5219-24.26 79.996-24.7859 79.3099-24.7859C78.6273-24.7859 78.1469-24.26 78.1469-23.5739L78.1469 9.52755C78.1469 10.1717 78.6239 10.6941 79.3099 10.6941Z"/>
   <path class="monochrome-6 multicolor-6:tintColor hierarchical-6:primary SFSymbolsPreviewWireframe" d="M87.2636 6.98315C87.9041 6.98315 88.4301 6.45725 88.4301 5.81665L88.4301-19.9152C88.4301-20.5944 87.9041-21.1203 87.2636-21.1203C86.5844-21.1203 86.0551-20.5944 86.0551-19.9152L86.0551 5.81665C86.0551 6.45725 86.5844 6.98315 87.2636 6.98315Z"/>
   <path class="monochrome-7 multicolor-7:tintColor hierarchical-7:primary SFSymbolsPreviewWireframe" d="M95.1752 0.965552C95.8612 0.965552 96.3416 0.439652 96.3416-0.246348L96.3416-13.8977C96.3416-14.5803 95.8612-15.0607 95.1752-15.0607C94.4926-15.0607 93.9666-14.5769 93.9666-13.8977L93.9666-0.246348C93.9666 0.436252 94.4926 0.965552 95.1752 0.965552Z"/>
  </g>
 </g>
</svg>
